<?xml version="1.0" encoding="UTF-8" standalone="no"?>
<!DOCTYPE svg PUBLIC "-//W3C//DTD SVG 1.1//EN" "http://www.w3.org/Graphics/SVG/1.1/DTD/svg11.dtd">
<svg width="100%" height="100%" viewBox="0 0 500 500" version="1.1" xmlns="http://www.w3.org/2000/svg" xmlns:xlink="http://www.w3.org/1999/xlink" xml:space="preserve" xmlns:serif="http://www.serif.com/" style="fill-rule:evenodd;clip-rule:evenodd;stroke-linejoin:round;stroke-miterlimit:2;">
    <path d="M191,61C183.489,68.511 193.088,77.949 162.055,91.55L162.677,90.154C182.913,99.754 183,99.996 191.767,120.465L190.952,119.905C199.733,99.716 199.734,99.354 219.764,90.4L220.35,91.293C202.444,83.441 200.759,84.421 191,61ZM367,103C366.905,103.095 197.95,155.012 185,158L185,307C78.784,276.653 105.879,429.061 182,391C190.543,386.728 190.067,386.933 197,380C216.057,360.943 206.08,356.57 208,227C234,219 270.576,206.808 276,205C334.943,185.352 334.225,185.34 343,183L342,276C243.596,240.856 260.644,399.178 341,359C349.047,354.977 348.341,354.659 355,348C376.148,326.852 365.063,321.873 367,103ZM165.789,182.316C125.958,168.875 125.165,166.494 124,163C113.126,130.379 113.785,126.931 112.09,129.239C111.053,132.451 99.49,168.255 98,169C95.295,170.352 62.381,181.642 59.272,182.709L59.272,182.291C95.943,196.506 96.604,194.604 99,197C99.811,197.811 111.411,234.908 112.446,238.219C125.04,199.175 124.848,198.576 128,197C129.385,196.308 162.762,183.479 165.789,182.316ZM407.625,310.17L407.374,312.958C396.429,345.594 399.545,351.152 367,362C363.983,363.006 364.493,362.254 361,364C353.701,367.649 360.506,368.502 368,371C392.6,379.2 392.99,379.98 394,382C394.953,383.906 407.275,419.27 408.407,422.519C421.895,382.818 420.622,381.459 425,380C427.901,379.033 427.098,378.103 460.809,366.647C457.778,365.491 424.933,352.966 423,352C419.811,350.406 420.253,349.712 407.625,310.17ZM340.945,410.55C320.925,401.776 319.666,397.998 319,396C315.143,384.429 312.591,382.727 311.537,382.024C303.185,401.597 302.597,401.316 283.236,410.6L283.236,409.4C303.896,418.636 304.098,419.414 312.593,439.896C319.304,418.735 320.378,418.464 340.945,409.45L340.945,410.55Z" style="fill:rgb(235,235,235);"/>
</svg>
